<?xml version="1.0" standalone="no"?>
<!DOCTYPE svg PUBLIC "-//W3C//DTD SVG 20010904//EN"
 "http://www.w3.org/TR/2001/REC-SVG-20010904/DTD/svg10.dtd">
<svg version="1.0" xmlns="http://www.w3.org/2000/svg"
 width="512.000000pt" height="512.000000pt" viewBox="0 0 512.000000 512.000000"
 preserveAspectRatio="xMidYMid meet">
<metadata>
Created by potrace 1.14, written by Peter Selinger 2001-2017
</metadata>
<g transform="translate(0.000000,512.000000) scale(0.100000,-0.100000)"
fill="#000000" stroke="none">
<path d="M2236 5104 c-273 -35 -552 -120 -811 -248 -511 -252 -908 -650 -1165
-1168 -121 -245 -208 -533 -245 -811 -20 -156 -20 -478 0 -634 86 -655 423
-1264 925 -1668 171 -138 296 -218 485 -311 369 -182 723 -264 1135 -264 412
0 766 82 1135 264 511 252 908 650 1165 1168 121 245 208 533 245 811 20 156
20 478 0 634 -86 655 -423 1264 -925 1668 -171 138 -296 218 -485 311 -266
131 -541 214 -825 249 -154 19 -482 18 -634 -1z m-288 -1221 c39 -29 59 -66
63 -115 3 -31 -3 -43 -41 -85 -54 -58 -199 -262 -293 -410 -114 -182 -293
-549 -377 -773 -24 -63 -49 -124 -56 -135 -8 -11 -14 -28 -14 -37 0 -10 -4
-26 -9 -36 -29 -60 -41 -92 -47 -127 -3 -22 -17 -78 -30 -125 -53 -191 -69
-380 -38 -446 23 -47 76 -91 158 -130 111 -53 167 -60 294 -40 119 20 204 38
430 93 l154 38 19 -24 c44 -54 13 -100 -111 -166 -184 -96 -348 -143 -525
-152 -139 -6 -219 8 -324 59 -81 39 -222 177 -265 257 -26 49 -30 70 -39 198
-11 159 -5 220 40 380 14 51 23 101 20 113 -3 12 6 36 24 62 17 27 29 56 29
77 0 19 13 57 29 85 16 28 43 94 61 146 18 52 55 145 82 205 28 61 65 149 83
197 121 315 467 853 586 911 36 17 50 14 97 -20z m1818 -64 c102 -18 212 -58
243 -90 16 -16 36 -29 43 -29 25 0 83 -57 111 -109 21 -38 29 -68 32 -123 2
-40 9 -91 14 -113 27 -104 7 -227 -55 -345 -38 -71 -199 -272 -262 -325 -21
-19 -45 -47 -51 -63 -12 -28 -10 -33 53 -111 98 -123 139 -223 151 -374 8 -90
-13 -213 -50 -290 -81 -173 -338 -409 -565 -519 -180 -87 -438 -115 -606 -65
-95 28 -204 78 -204 94 0 29 -35 75 -72 94 -45 23 -93 91 -101 144 -17 109 41
318 195 695 201 494 360 897 383 972 28 90 30 148 7 231 -11 42 -2 95 23 133
26 41 257 144 410 184 79 21 211 25 301 9z"/>
<path d="M3540 3563 c-83 -14 -181 -48 -209 -71 -29 -25 -35 -40 -65 -177 -19
-82 -47 -184 -64 -225 -16 -41 -35 -93 -42 -115 -7 -22 -17 -46 -23 -53 -29
-36 -137 -338 -137 -380 0 -50 9 -52 100 -21 47 16 135 43 196 59 62 16 145
45 185 66 209 104 398 308 480 517 28 69 33 98 37 187 4 96 2 107 -18 133 -27
35 -79 61 -148 76 -50 10 -238 13 -292 4z"/>
<path d="M3355 2381 c-82 -21 -207 -56 -277 -79 -70 -23 -135 -42 -146 -42
-35 0 -139 -128 -169 -210 -31 -82 -56 -205 -48 -238 4 -19 -2 -52 -14 -90
-12 -34 -21 -80 -21 -103 0 -37 6 -48 44 -84 60 -58 141 -84 276 -92 154 -8
288 29 444 121 151 90 317 268 383 411 40 86 39 176 -3 265 -87 186 -177 213
-469 141z"/>
</g>
</svg>
