<?xml version="1.0" standalone="no"?>
<!DOCTYPE svg PUBLIC "-//W3C//DTD SVG 20010904//EN"
 "http://www.w3.org/TR/2001/REC-SVG-20010904/DTD/svg10.dtd">
<svg version="1.0" xmlns="http://www.w3.org/2000/svg"
 width="560.000000pt" height="560.000000pt" viewBox="0 0 560.000000 560.000000"
 preserveAspectRatio="xMidYMid meet">
<metadata>
Created by potrace 1.14, written by Peter Selinger 2001-2017
</metadata>
<g transform="translate(0.000000,560.000000) scale(0.100000,-0.100000)"
fill="#000000" stroke="none">
<path d="M2615 5229 c-245 -33 -481 -126 -680 -267 -120 -86 -279 -249 -364
-377 -116 -173 -160 -272 -230 -514 -5 -17 -19 -28 -44 -35 -94 -27 -157 -123
-157 -239 0 -38 6 -88 12 -110 17 -57 83 -123 131 -132 l37 -7 0 -815 c0 -901
-3 -858 64 -906 29 -21 42 -22 239 -25 l209 -3 -52 -55 c-57 -60 -87 -119 -97
-189 -6 -45 -9 -49 -52 -68 -182 -80 -409 -265 -542 -442 -54 -71 -119 -176
-119 -191 0 -19 222 -238 326 -320 133 -106 251 -183 398 -260 105 -54 270
-126 344 -148 l22 -7 0 455 c0 251 2 456 5 456 2 0 34 -14 70 -32 l65 -32 2
-446 3 -445 80 -17 c376 -81 748 -73 1122 23 313 80 638 244 902 456 100 80
321 299 321 317 0 15 -65 120 -119 191 -132 175 -361 363 -537 441 -50 22 -51
24 -58 72 -9 71 -50 144 -110 200 l-53 48 50 12 c173 41 339 179 418 347 60
128 59 109 59 945 0 476 -4 798 -11 850 -27 219 -105 419 -244 630 -208 313
-547 539 -930 620 -116 24 -369 34 -480 19z m719 -1094 c123 -188 297 -369
457 -474 50 -33 95 -61 100 -63 4 -2 2 -39 -6 -83 -8 -44 -14 -138 -15 -210
-1 -367 -56 -576 -176 -668 -67 -51 -164 -98 -216 -104 -54 -6 -65 5 -111 114
-19 45 -44 95 -56 112 -28 39 -146 97 -226 112 -71 13 -231 7 -263 -10 -17 -9
-27 -9 -44 0 -33 18 -186 23 -264 10 -82 -15 -196 -72 -226 -113 -11 -16 -36
-66 -55 -111 -46 -109 -57 -120 -111 -114 -52 6 -149 53 -216 104 -120 92
-175 301 -176 668 -1 72 -7 166 -15 210 -8 44 -15 83 -15 87 0 3 28 16 62 27
l61 21 55 -26 c79 -37 124 -41 388 -34 252 8 279 12 327 58 22 21 27 35 27 71
0 72 -9 78 -67 50 -43 -21 -65 -24 -203 -27 -85 -2 -182 -1 -216 3 l-62 6 86
46 c238 124 464 282 630 438 88 83 93 86 78 50 -26 -61 -112 -206 -166 -281
-27 -37 -48 -70 -46 -72 15 -14 206 110 290 188 71 67 174 212 202 287 l17 44
56 -113 c31 -62 83 -153 115 -203z m-1674 -879 l0 -345 -28 10 c-46 16 -99 66
-123 116 -21 42 -24 66 -27 199 -5 173 7 245 46 300 25 34 60 51 125 63 4 0 7
-154 7 -343z m2368 280 c57 -23 74 -35 80 -55 13 -48 8 -383 -7 -425 -16 -47
-85 -119 -129 -134 l-32 -11 0 330 c0 182 3 329 8 327 4 -1 40 -16 80 -32z
m-1183 -821 c26 -9 82 -14 155 -15 131 -1 182 -16 219 -68 92 -130 80 -269
-35 -392 -62 -66 -104 -91 -157 -93 -38 -2 -50 3 -85 35 -85 76 -199 76 -284
0 -35 -32 -47 -37 -85 -35 -53 2 -95 27 -157 93 -115 123 -127 262 -35 392 37
51 88 67 219 68 69 1 129 6 150 14 46 18 49 18 95 1z m-407 -800 c223 -65 402
-74 612 -31 69 14 145 32 169 41 24 8 46 15 50 15 3 0 7 -98 9 -218 3 -175 0
-229 -13 -276 -69 -258 -329 -416 -578 -351 -173 45 -305 176 -352 351 -23 84
-18 507 5 498 8 -3 52 -16 98 -29z m1102 -1300 c0 -402 -1 -416 -20 -435 -11
-11 -33 -20 -50 -20 -17 0 -39 9 -50 20 -19 19 -20 33 -20 403 l0 383 63 31
c34 18 65 32 70 32 4 1 7 -186 7 -414z"/>
<path d="M2986 3774 c-3 -9 -6 -35 -6 -58 0 -47 30 -85 85 -107 36 -14 486
-29 554 -18 63 10 141 45 141 63 0 17 -43 50 -97 73 -32 14 -79 17 -303 17
-254 1 -267 2 -309 24 -53 26 -57 27 -65 6z"/>
<path d="M2130 3468 c-45 -16 -130 -98 -130 -126 0 -28 14 -28 52 -1 33 24
108 49 145 49 20 0 22 -3 13 -19 -26 -50 -1 -130 50 -156 60 -31 137 -10 165
45 54 104 -39 210 -189 216 -39 2 -87 -2 -106 -8z"/>
<path d="M3290 3468 c-45 -16 -130 -98 -130 -126 0 -28 14 -28 52 -1 33 24
108 49 145 49 20 0 22 -3 13 -19 -26 -50 -1 -130 50 -156 60 -31 137 -10 165
45 54 104 -39 210 -189 216 -39 2 -87 -2 -106 -8z"/>
<path d="M2530 2625 c-16 -19 -7 -77 17 -109 50 -68 151 -101 284 -94 97 5
158 28 206 78 53 54 56 131 6 138 -15 2 -29 -9 -49 -39 -16 -23 -40 -50 -54
-61 -38 -28 -129 -41 -197 -28 -68 12 -98 31 -136 88 -30 44 -56 53 -77 27z"/>
</g>
</svg>
